<!-- Generated by IcoMoon.io -->
<svg version="1.1" xmlns="http://www.w3.org/2000/svg" width="480" height="448" viewBox="0 0 480 448">
<path d="M320 216c0-2-0.75-4.25-2.25-5.75l-88-88c-1.5-1.5-3.5-2.25-5.75-2.25-2 0-4.25 0.75-5.75 2.25l-87.75 87.75c-1.5 1.75-2.5 3.75-2.5 6 0 4.5 3.5 8 8 8h56v88c0 4.25 3.75 8 8 8h48c4.25 0 8-3.75 8-8v-88h56c4.5 0 8-3.75 8-8zM480 288c0 53-43 96-96 96h-272c-61.75 0-112-50.25-112-112 0-43.5 25.25-83 64.5-101.25-0.25-3.75-0.5-7.25-0.5-10.75 0-70.75 57.25-128 128-128 52 0 98.75 31.5 118.5 79.5 11.5-10 26.25-15.5 41.5-15.5 35.25 0 64 28.75 64 64 0 12.25-3.5 24.25-10.25 34.5 43.5 10.25 74.25 49 74.25 93.5z"></path>
</svg>
