<!-- Generated by IcoMoon.io -->
<svg version="1.1" xmlns="http://www.w3.org/2000/svg" width="480" height="448" viewBox="0 0 480 448">
<path d="M96 400v-32c0-8.75-7.25-16-16-16h-32c-8.75 0-16 7.25-16 16v32c0 8.75 7.25 16 16 16h32c8.75 0 16-7.25 16-16zM96 304v-32c0-8.75-7.25-16-16-16h-32c-8.75 0-16 7.25-16 16v32c0 8.75 7.25 16 16 16h32c8.75 0 16-7.25 16-16zM96 208v-32c0-8.75-7.25-16-16-16h-32c-8.75 0-16 7.25-16 16v32c0 8.75 7.25 16 16 16h32c8.75 0 16-7.25 16-16zM352 400v-128c0-8.75-7.25-16-16-16h-192c-8.75 0-16 7.25-16 16v128c0 8.75 7.25 16 16 16h192c8.75 0 16-7.25 16-16zM96 112v-32c0-8.75-7.25-16-16-16h-32c-8.75 0-16 7.25-16 16v32c0 8.75 7.25 16 16 16h32c8.75 0 16-7.25 16-16zM448 400v-32c0-8.75-7.25-16-16-16h-32c-8.75 0-16 7.25-16 16v32c0 8.75 7.25 16 16 16h32c8.75 0 16-7.25 16-16zM352 208v-128c0-8.75-7.25-16-16-16h-192c-8.75 0-16 7.25-16 16v128c0 8.75 7.25 16 16 16h192c8.75 0 16-7.25 16-16zM448 304v-32c0-8.75-7.25-16-16-16h-32c-8.75 0-16 7.25-16 16v32c0 8.75 7.25 16 16 16h32c8.75 0 16-7.25 16-16zM448 208v-32c0-8.75-7.25-16-16-16h-32c-8.75 0-16 7.25-16 16v32c0 8.75 7.25 16 16 16h32c8.75 0 16-7.25 16-16zM448 112v-32c0-8.75-7.25-16-16-16h-32c-8.75 0-16 7.25-16 16v32c0 8.75 7.25 16 16 16h32c8.75 0 16-7.25 16-16zM480 72v336c0 22-18 40-40 40h-400c-22 0-40-18-40-40v-336c0-22 18-40 40-40h400c22 0 40 18 40 40z"></path>
</svg>
